<?xml version="1.0" encoding="UTF-8" standalone="no"?>
<!-- Created with Inkscape (http://www.inkscape.org/) -->

<svg
   xmlns:dc="http://purl.org/dc/elements/1.1/"
   xmlns:cc="http://creativecommons.org/ns#"
   xmlns:rdf="http://www.w3.org/1999/02/22-rdf-syntax-ns#"
   xmlns:svg="http://www.w3.org/2000/svg"
   xmlns="http://www.w3.org/2000/svg"
   xmlns:sodipodi="http://sodipodi.sourceforge.net/DTD/sodipodi-0.dtd"
   xmlns:inkscape="http://www.inkscape.org/namespaces/inkscape"
   width="50"
   height="50"
   viewBox="0 0 13.229166 13.229167"
   version="1.1"
   id="svg8"
   inkscape:version="0.92.2 (30a58d1, 2017-08-07)"
   sodipodi:docname="eye.svg">
  <defs
     id="defs2" />
  <sodipodi:namedview
     id="base"
     pagecolor="#ffffff"
     bordercolor="#666666"
     borderopacity="1.0"
     inkscape:pageopacity="0.0"
     inkscape:pageshadow="2"
     inkscape:zoom="8.1016441"
     inkscape:cx="50.136583"
     inkscape:cy="43.629664"
     inkscape:document-units="mm"
     inkscape:current-layer="layer1"
     showgrid="false"
     units="px"
     inkscape:pagecheckerboard="true"
     inkscape:window-width="1855"
     inkscape:window-height="1056"
     inkscape:window-x="65"
     inkscape:window-y="24"
     inkscape:window-maximized="1" />
  <metadata
     id="metadata5">
    <rdf:RDF>
      <cc:Work
         rdf:about="">
        <dc:format>image/svg+xml</dc:format>
        <dc:type
           rdf:resource="http://purl.org/dc/dcmitype/StillImage" />
        <dc:title></dc:title>
      </cc:Work>
    </rdf:RDF>
  </metadata>
  <g
     inkscape:label="Layer 1"
     inkscape:groupmode="layer"
     id="layer1"
     transform="translate(0,-283.77082)">
    <path
       style="color:#000000;font-style:normal;font-variant:normal;font-weight:normal;font-stretch:normal;font-size:medium;line-height:normal;font-family:sans-serif;font-variant-ligatures:normal;font-variant-position:normal;font-variant-caps:normal;font-variant-numeric:normal;font-variant-alternates:normal;font-feature-settings:normal;text-indent:0;text-align:start;text-decoration:none;text-decoration-line:none;text-decoration-style:solid;text-decoration-color:#000000;letter-spacing:normal;word-spacing:normal;text-transform:none;writing-mode:lr-tb;direction:ltr;text-orientation:mixed;dominant-baseline:auto;baseline-shift:baseline;text-anchor:start;white-space:normal;shape-padding:0;clip-rule:nonzero;display:inline;overflow:visible;visibility:visible;opacity:1;isolation:auto;mix-blend-mode:normal;color-interpolation:sRGB;color-interpolation-filters:linearRGB;solid-color:#000000;solid-opacity:1;vector-effect:none;fill:#ffffff;fill-opacity:1;fill-rule:nonzero;stroke:none;stroke-width:1.13815427;stroke-linecap:round;stroke-linejoin:miter;stroke-miterlimit:4;stroke-dasharray:none;stroke-dashoffset:0;stroke-opacity:1;color-rendering:auto;image-rendering:auto;shape-rendering:auto;text-rendering:auto;enable-background:accumulate"
       d="m 6.6456693,286.69538 c -1.6557653,0 -3.166414,0.38851 -4.2927642,1.04689 -1.1263501,0.65837 -1.88027017,1.61496 -1.88027017,2.69263 0,1.07767 0.75392007,2.03501 1.88027017,2.69338 1.1263502,0.65837 2.6369989,1.04614 4.2927642,1.04614 1.6557647,0 3.1664137,-0.38777 4.2927637,-1.04614 1.12635,-0.65837 1.879325,-1.61571 1.879325,-2.69338 0,-1.07767 -0.752975,-2.03426 -1.879325,-2.69263 -1.12635,-0.65838 -2.636999,-1.04689 -4.2927637,-1.04689 z m 1.9e-6,0.63722 c 1.3996899,0 3.0500139,0.39866 3.9259948,0.91069 0.875982,0.51203 2.21485,1.4958 2.21485,2.2041 0,0.70829 -1.43371,1.65535 -2.309691,2.16738 -0.875981,0.51203 -2.5421118,0.88572 -3.9418016,0.88572 -1.3996899,0 -2.8138568,-0.3737 -3.6898382,-0.88572 -0.8759813,-0.51203 -2.40358697,-1.47158 -2.40358697,-2.17987 0,-0.7083 1.41695777,-1.7545 2.29293917,-2.26652 0.8759813,-0.51203 2.511444,-0.83578 3.9111338,-0.83578 z"
       id="path815"
       inkscape:connector-curvature="0"
       sodipodi:nodetypes="scscscscssssssssss" />
    <path
       style="color:#000000;font-style:normal;font-variant:normal;font-weight:normal;font-stretch:normal;font-size:medium;line-height:normal;font-family:sans-serif;font-variant-ligatures:normal;font-variant-position:normal;font-variant-caps:normal;font-variant-numeric:normal;font-variant-alternates:normal;font-feature-settings:normal;text-indent:0;text-align:start;text-decoration:none;text-decoration-line:none;text-decoration-style:solid;text-decoration-color:#000000;letter-spacing:normal;word-spacing:normal;text-transform:none;writing-mode:lr-tb;direction:ltr;text-orientation:mixed;dominant-baseline:auto;baseline-shift:baseline;text-anchor:start;white-space:normal;shape-padding:0;clip-rule:nonzero;display:inline;overflow:visible;visibility:visible;opacity:1;isolation:auto;mix-blend-mode:normal;color-interpolation:sRGB;color-interpolation-filters:linearRGB;solid-color:#000000;solid-opacity:1;vector-effect:none;fill:#ffffff;fill-opacity:1;fill-rule:nonzero;stroke:none;stroke-width:1.32196999;stroke-linecap:round;stroke-linejoin:miter;stroke-miterlimit:4;stroke-dasharray:none;stroke-dashoffset:0;stroke-opacity:1;color-rendering:auto;image-rendering:auto;shape-rendering:auto;text-rendering:auto;enable-background:accumulate"
       d="m 6.5429578,286.76285 c -1.0509027,0 -1.9836453,0.1886 -2.6847499,0.8059 -0.7011046,0.6173 -1.0464853,1.61665 -1.0464852,2.867 0,1.25545 0.3613249,2.26188 1.0710639,2.88413 0.709739,0.62225 1.6530773,0.82101 2.7074378,0.82101 1.0543609,0 1.9782696,-0.20089 2.6582807,-0.83411 0.6800107,-0.63322 0.9935459,-1.62916 0.9935459,-2.87103 0,-1.24695 -0.3328952,-2.2439 -1.0266329,-2.86397 -0.6937372,-0.62008 -1.6215577,-0.80893 -2.6724603,-0.80893 z m 0.015808,1.12918 c 0.9002236,0 1.5487029,0.44823 1.896495,0.75909 0.3477916,0.31087 0.584898,0.80934 0.584898,1.81832 0,1.01408 -0.3909784,1.59631 -0.7287864,1.91088 -0.3378083,0.31457 -0.9034152,0.71662 -1.8001811,0.71662 -0.8967654,0 -1.4431632,-0.35364 -1.8144705,-0.67918 -0.3713074,-0.32554 -0.6040688,-0.98151 -0.6040688,-1.98201 0,-1.00559 0.2883766,-1.50164 0.6446081,-1.81529 0.3562313,-0.31365 0.921282,-0.72843 1.8215057,-0.72843 z"
       id="path819"
       inkscape:connector-curvature="0"
       sodipodi:nodetypes="scssscssssssssssss" />
  </g>
</svg>
