<?xml version="1.0" encoding="UTF-8" standalone="no"?>
<!-- Created with Inkscape (http://www.inkscape.org/) -->

<svg
   xmlns:dc="http://purl.org/dc/elements/1.1/"
   xmlns:cc="http://creativecommons.org/ns#"
   xmlns:rdf="http://www.w3.org/1999/02/22-rdf-syntax-ns#"
   xmlns:svg="http://www.w3.org/2000/svg"
   xmlns="http://www.w3.org/2000/svg"
   xmlns:sodipodi="http://sodipodi.sourceforge.net/DTD/sodipodi-0.dtd"
   xmlns:inkscape="http://www.inkscape.org/namespaces/inkscape"
   width="100"
   height="100"
   viewBox="0 0 26.458333 26.458334"
   version="1.1"
   id="svg1533"
   inkscape:version="0.92.2 (30a58d1, 2017-08-07)"
   sodipodi:docname="tyrell.svg">
  <defs
     id="defs1527" />
  <sodipodi:namedview
     id="base"
     pagecolor="#ffffff"
     bordercolor="#666666"
     borderopacity="1.0"
     inkscape:pageopacity="0.0"
     inkscape:pageshadow="2"
     inkscape:zoom="5.60625"
     inkscape:cx="61.153313"
     inkscape:cy="65.698359"
     inkscape:document-units="mm"
     inkscape:current-layer="layer2"
     showgrid="false"
     units="px"
     inkscape:pagecheckerboard="true"
     inkscape:window-width="1855"
     inkscape:window-height="1028"
     inkscape:window-x="65"
     inkscape:window-y="24"
     inkscape:window-maximized="0"
     inkscape:object-nodes="false" />
  <metadata
     id="metadata1530">
    <rdf:RDF>
      <cc:Work
         rdf:about="">
        <dc:format>image/svg+xml</dc:format>
        <dc:type
           rdf:resource="http://purl.org/dc/dcmitype/StillImage" />
        <dc:title />
      </cc:Work>
    </rdf:RDF>
  </metadata>
  <g
     inkscape:label="Layer 1"
     inkscape:groupmode="layer"
     id="layer1"
     transform="translate(0,-270.54165)"
     sodipodi:insensitive="true"
     style="display:inline">
    <path
       style="opacity:1;fill:none;fill-opacity:1;stroke:#424242;stroke-width:0.26458332;stroke-linecap:round;stroke-miterlimit:4;stroke-dasharray:none;stroke-opacity:1"
       inkscape:transform-center-x="0.023597275"
       inkscape:transform-center-y="2.5752535"
       d="M 13.544778,294.54589 C 5.2656161,289.36813 2.9260355,280.50922 2.0281487,275.33147 c 6.3782581,3.27318 14.2563953,3.3615 22.2781503,-0.1289 -0.882856,5.71533 -3.293021,14.12775 -10.761521,19.34332 z"
       id="path2078"
       inkscape:connector-curvature="0"
       sodipodi:nodetypes="cccc" />
    <path
       style="color:#000000;font-style:normal;font-variant:normal;font-weight:normal;font-stretch:normal;font-size:medium;line-height:normal;font-family:sans-serif;font-variant-ligatures:normal;font-variant-position:normal;font-variant-caps:normal;font-variant-numeric:normal;font-variant-alternates:normal;font-feature-settings:normal;text-indent:0;text-align:start;text-decoration:none;text-decoration-line:none;text-decoration-style:solid;text-decoration-color:#000000;letter-spacing:normal;word-spacing:normal;text-transform:none;writing-mode:lr-tb;direction:ltr;text-orientation:mixed;dominant-baseline:auto;baseline-shift:baseline;text-anchor:start;white-space:normal;shape-padding:0;clip-rule:nonzero;display:inline;overflow:visible;visibility:visible;opacity:1;isolation:auto;mix-blend-mode:normal;color-interpolation:sRGB;color-interpolation-filters:linearRGB;solid-color:#000000;solid-opacity:1;vector-effect:none;fill:#424242;fill-opacity:1;fill-rule:nonzero;stroke:none;stroke-width:0.26458332;stroke-linecap:round;stroke-linejoin:miter;stroke-miterlimit:4;stroke-dasharray:none;stroke-dashoffset:0;stroke-opacity:1;color-rendering:auto;image-rendering:auto;shape-rendering:auto;text-rendering:auto;enable-background:accumulate"
       d="m 4.8703446,278.03822 v 1.2e-4 l 8.2582644,7.94272 c 3.852699,-3.1259 5.935407,-6.14925 8.471598,-7.94872 l 1.132664,-0.89669 c -5.600613,2.86861 -13.5028324,3.10286 -18.8536078,0.10039 z m 0.5645091,0.51262 c 2.3549355,1.27921 7.5049893,3.20081 7.8275153,4.08776 0.584859,-0.80418 5.599602,-2.97678 7.773684,-4.10666 -3.165013,1.65752 -5.871691,3.92614 -7.904985,7.09262 -2.479624,-4.41665 -5.0953829,-5.56605 -7.6962143,-7.07372 z"
       id="path2081"
       inkscape:connector-curvature="0"
       sodipodi:nodetypes="cccccccccccc" />
    <path
       style="fill:#424242;fill-opacity:1;stroke:#424242;stroke-width:0.26458332px;stroke-linecap:butt;stroke-linejoin:miter;stroke-opacity:1"
       d="m 7.8342621,286.94759 10.9962839,-10e-6 -3.209216,4.29469 -0.09439,-1.6518 1.132665,-1.51022 -2.406912,0.0944 -1e-6,3.53958 0.377555,0.0472 -1.179859,1.17987 -1.227053,-1.17987 0.424749,-0.0472 -0.09439,-3.58679 -2.454107,-0.0472 1.227053,1.41583 0.141583,1.79339 z"
       id="path908"
       inkscape:connector-curvature="0"
       sodipodi:nodetypes="cccccccccccccccc" />
  </g>
  <g
     inkscape:groupmode="layer"
     id="layer2"
     inkscape:label="Layer 2"
     style="display:inline">
    <path
       style="fill:none;fill-opacity:1;stroke:#424242;stroke-width:0.39687499;stroke-linecap:round;stroke-miterlimit:4;stroke-dasharray:none;stroke-opacity:1"
       d="m 13.28521,15.46205 c -4.4961711,0 -4.5070705,-0.0788 -5.8285024,-0.16519 C 5.5674737,14.77498 5.1597748,9.1492987 7.5599562,9.6621504 8.2154985,9.8022215 3.8597188,6.5438853 3.8597188,6.5438853 c 0,0 9.4305402,4.8955487 9.3782972,2.7828952 0.06403,1.9828445 10.078243,-3.0645581 10.078243,-3.0645581 0,0 -4.522675,3.2718911 -4.065503,3.3882476 2.119114,0.539343 1.611258,5.32709 -0.564674,5.64906 -1.70634,0.17456 -4.091511,0.1676 -5.400872,0.16252 z"
       id="path867"
       inkscape:connector-curvature="0"
       sodipodi:nodetypes="ccscccscc" />
    <path
       transform="translate(0,-270.54164)"
       style="fill:none;fill-opacity:1;stroke:#424242;stroke-width:0.39687499;stroke-linecap:round;stroke-miterlimit:4;stroke-dasharray:none;stroke-opacity:1"
       d="m 18.736157,282.93607 c -10e-7,0.91226 -0.655019,1.6518 -1.463025,1.6518 -0.808006,0 -1.463024,-0.73954 -1.463025,-1.6518 0.903878,-0.93934 0.609531,-0.63718 0.903878,-0.93934 0.259837,-0.26672 0,0 0.559147,-0.71247 0.498848,-0.63563 1.463029,0.73954 1.463025,1.65181 z"
       id="path870-3"
       inkscape:connector-curvature="0"
       sodipodi:nodetypes="cscssc" />
    <path
       transform="translate(0,-270.54164)"
       style="fill:none;fill-opacity:1;stroke:#424242;stroke-width:0.39687499;stroke-linecap:round;stroke-miterlimit:4;stroke-dasharray:none;stroke-opacity:1"
       d="m 10.713118,282.88885 c 4e-6,0.91227 -0.655016,1.65181 -1.4630245,1.65181 -0.808009,0 -1.4630287,-0.73954 -1.4630249,-1.65181 1.1e-6,-0.91226 0.6550194,-1.6518 1.4630249,-1.6518 0.4006536,0 0.669303,0.88975 0.9335195,1.18431 0.268635,0.29948 0.529504,0.008 0.529505,0.46749 z"
       id="path870"
       inkscape:connector-curvature="0"
       sodipodi:nodetypes="cscssc" />
    <ellipse
       transform="translate(0,-270.54164)"
       style="fill:#424242;fill-opacity:1;stroke:#424242;stroke-width:0.39687499;stroke-linecap:round;stroke-miterlimit:4;stroke-dasharray:none;stroke-opacity:1"
       id="path887"
       cx="9.4624672"
       cy="282.7001"
       rx="0.54273504"
       ry="0.56633216" />
    <path
       id="path887-6"
       transform="scale(0.26458333)"
       style="fill:#424242;fill-opacity:1;stroke:#424242;stroke-width:1.5;stroke-linecap:round;stroke-miterlimit:4;stroke-dasharray:none;stroke-opacity:1"
       d="m 64.214844,43.8125 a 2.0512823,2.140468 0 0 0 -2.052735,2.140625 2.0512823,2.140468 0 0 0 2.052735,2.140625 2.0512823,2.140468 0 0 0 2.050781,-2.140625 2.0512823,2.140468 0 0 0 -2.050781,-2.140625 z"
       inkscape:connector-curvature="0" />
    <flowRoot
       xml:space="preserve"
       id="flowRoot1417"
       style="fill:black;fill-opacity:1;stroke:none;font-family:sans-serif;font-style:normal;font-weight:normal;font-size:40px;line-height:1.25;letter-spacing:0px;word-spacing:0px"><flowRegion
         id="flowRegion1419"><rect
           id="rect1421"
           width="106.66666"
           height="41.560757"
           x="18.907469"
           y="14.024527" /></flowRegion><flowPara
         id="flowPara1423"></flowPara></flowRoot>    <text
       xml:space="preserve"
       style="font-style:normal;font-variant:normal;font-weight:normal;font-stretch:normal;font-size:2.82222223px;line-height:1.25;font-family:sans-serif;-inkscape-font-specification:'sans-serif, Normal';font-variant-ligatures:normal;font-variant-caps:normal;font-variant-numeric:normal;font-feature-settings:normal;text-align:start;letter-spacing:0px;word-spacing:0px;writing-mode:lr-tb;text-anchor:start;fill:#424242;fill-opacity:1;stroke:#424242;stroke-width:0.26458332;stroke-opacity:1"
       x="1.934968"
       y="3.521878"
       id="text1427"><tspan
         sodipodi:role="line"
         id="tspan1431"
         style="font-style:normal;font-variant:normal;font-weight:normal;font-stretch:normal;font-size:4.23333311px;font-family:sans-serif;-inkscape-font-specification:'sans-serif, Normal';font-variant-ligatures:normal;font-variant-caps:normal;font-variant-numeric:normal;font-feature-settings:normal;text-align:start;writing-mode:lr-tb;text-anchor:start;fill:#424242;fill-opacity:1"
         x="1.934968"
         y="3.521878">T Y R E L L</tspan></text>
  </g>
</svg>
